<svg width="36" height="36" viewBox="0 0 36 36" fill="none" xmlns="http://www.w3.org/2000/svg">
<path d="M0 12C0 5.37258 5.08982 0 11.3684 0H24.6316C30.9102 0 36 5.37258 36 12V24C36 30.6274 30.9102 36 24.6316 36H11.3684C5.08982 36 0 30.6274 0 24V12Z" fill="#3661ED"/>
<path fill-rule="evenodd" clip-rule="evenodd" d="M18.8649 20.9563C21.4127 20.9563 23.4781 18.7761 23.4781 16.0868C23.4781 13.3974 21.4127 11.2173 18.8649 11.2173C16.3171 11.2173 14.2517 13.3974 14.2517 16.0868C14.2517 18.7761 16.3171 20.9563 18.8649 20.9563ZM18.8649 22.1736C22.0496 22.1736 24.6314 19.4485 24.6314 16.0868C24.6314 12.7251 22.0496 9.99994 18.8649 9.99994C15.6801 9.99994 13.0984 12.7251 13.0984 16.0868C13.0984 19.4485 15.6801 22.1736 18.8649 22.1736Z" fill="#F8F9FF"/>
<path fill-rule="evenodd" clip-rule="evenodd" d="M11.5373 23.5696L14.9972 19.9175L15.8127 20.7783L12.3528 24.4304C12.1276 24.6681 11.7625 24.6681 11.5373 24.4304C11.3121 24.1927 11.3121 23.8073 11.5373 23.5696Z" fill="#F8F9FF"/>
</svg>
